<svg id="SvgjsSvg1132" width="657" height="673.515625" xmlns="http://www.w3.org/2000/svg" version="1.1" xmlns:xlink="http://www.w3.org/1999/xlink" xmlns:svgjs="http://svgjs.com/svgjs"><defs id="SvgjsDefs1133"><pattern id="SvgjsPattern1174" x="0" y="0" width="133" height="21" patternUnits="userSpaceOnUse"><image id="SvgjsImage1175" xlink:href="http://cdn.processon.com/627a4b06e0b34d07586d14f2?e=1652185366&amp;token=trhI0BY8QfVrIGn9nENop6JAc6l5nZuxhjQ62UfM:7Y0bSAeYcKlQM1IAil90kNLvB1Q=" width="305" height="127" preserveAspectRatio="none" crossOrigin="anonymous" x="0" y="0"></image></pattern><pattern id="SvgjsPattern1180" x="0" y="0" width="219" height="22" patternUnits="userSpaceOnUse"><image id="SvgjsImage1181" xlink:href="http://cdn.processon.com/627a4b06e0b34d07586d14f2?e=1652185366&amp;token=trhI0BY8QfVrIGn9nENop6JAc6l5nZuxhjQ62UfM:7Y0bSAeYcKlQM1IAil90kNLvB1Q=" width="305" height="127" preserveAspectRatio="none" crossOrigin="anonymous" x="0" y="-21"></image></pattern><pattern id="SvgjsPattern1186" x="0" y="0" width="149" height="21" patternUnits="userSpaceOnUse"><image id="SvgjsImage1187" xlink:href="http://cdn.processon.com/627a4b06e0b34d07586d14f2?e=1652185366&amp;token=trhI0BY8QfVrIGn9nENop6JAc6l5nZuxhjQ62UfM:7Y0bSAeYcKlQM1IAil90kNLvB1Q=" width="305" height="127" preserveAspectRatio="none" crossOrigin="anonymous" x="0" y="-43"></image></pattern><pattern id="SvgjsPattern1192" x="0" y="0" width="305" height="21" patternUnits="userSpaceOnUse"><image id="SvgjsImage1193" xlink:href="http://cdn.processon.com/627a4b06e0b34d07586d14f2?e=1652185366&amp;token=trhI0BY8QfVrIGn9nENop6JAc6l5nZuxhjQ62UfM:7Y0bSAeYcKlQM1IAil90kNLvB1Q=" width="305" height="127" preserveAspectRatio="none" crossOrigin="anonymous" x="0" y="-64"></image></pattern><pattern id="SvgjsPattern1198" x="0" y="0" width="132" height="21" patternUnits="userSpaceOnUse"><image id="SvgjsImage1199" xlink:href="http://cdn.processon.com/627a4b06e0b34d07586d14f2?e=1652185366&amp;token=trhI0BY8QfVrIGn9nENop6JAc6l5nZuxhjQ62UfM:7Y0bSAeYcKlQM1IAil90kNLvB1Q=" width="305" height="127" preserveAspectRatio="none" crossOrigin="anonymous" x="0" y="-85"></image></pattern><marker id="SvgjsMarker1202" markerWidth="12" markerHeight="8" refX="9" refY="4" viewBox="0 0 12 8" orient="auto" markerUnits="userSpaceOnUse" stroke-dasharray="0,0"><path id="SvgjsPath1203" d="M0,0 L12,4 L0,8 L0,0" fill="#323232" stroke="#323232" stroke-width="1"></path></marker><marker id="SvgjsMarker1206" markerWidth="12" markerHeight="8" refX="9" refY="4" viewBox="0 0 12 8" orient="auto" markerUnits="userSpaceOnUse" stroke-dasharray="0,0"><path id="SvgjsPath1207" d="M0,0 L12,4 L0,8 L0,0" fill="#323232" stroke="#323232" stroke-width="1"></path></marker><marker id="SvgjsMarker1210" markerWidth="12" markerHeight="8" refX="9" refY="4" viewBox="0 0 12 8" orient="auto" markerUnits="userSpaceOnUse" stroke-dasharray="0,0"><path id="SvgjsPath1211" d="M0,0 L12,4 L0,8 L0,0" fill="#323232" stroke="#323232" stroke-width="1"></path></marker><marker id="SvgjsMarker1214" markerWidth="12" markerHeight="8" refX="9" refY="4" viewBox="0 0 12 8" orient="auto" markerUnits="userSpaceOnUse" stroke-dasharray="0,0"><path id="SvgjsPath1215" d="M0,0 L12,4 L0,8 L0,0" fill="#323232" stroke="#323232" stroke-width="1"></path></marker><marker id="SvgjsMarker1218" markerWidth="12" markerHeight="8" refX="9" refY="4" viewBox="0 0 12 8" orient="auto" markerUnits="userSpaceOnUse" stroke-dasharray="0,0"><path id="SvgjsPath1219" d="M0,0 L12,4 L0,8 L0,0" fill="#323232" stroke="#323232" stroke-width="1"></path></marker><marker id="SvgjsMarker1222" markerWidth="12" markerHeight="8" refX="9" refY="4" viewBox="0 0 12 8" orient="auto" markerUnits="userSpaceOnUse" stroke-dasharray="0,0"><path id="SvgjsPath1223" d="M0,0 L12,4 L0,8 L0,0" fill="#323232" stroke="#323232" stroke-width="1"></path></marker><marker id="SvgjsMarker1226" markerWidth="12" markerHeight="8" refX="9" refY="4" viewBox="0 0 12 8" orient="auto" markerUnits="userSpaceOnUse" stroke-dasharray="0,0"><path id="SvgjsPath1227" d="M0,0 L12,4 L0,8 L0,0" fill="#323232" stroke="#323232" stroke-width="1"></path></marker><marker id="SvgjsMarker1230" markerWidth="12" markerHeight="8" refX="9" refY="4" viewBox="0 0 12 8" orient="auto" markerUnits="userSpaceOnUse" stroke-dasharray="0,0"><path id="SvgjsPath1231" d="M0,0 L12,4 L0,8 L0,0" fill="#323232" stroke="#323232" stroke-width="1"></path></marker><marker id="SvgjsMarker1234" markerWidth="12" markerHeight="8" refX="9" refY="4" viewBox="0 0 12 8" orient="auto" markerUnits="userSpaceOnUse" stroke-dasharray="0,0"><path id="SvgjsPath1235" d="M0,0 L12,4 L0,8 L0,0" fill="#323232" stroke="#323232" stroke-width="1"></path></marker><pattern id="SvgjsPattern1252" x="0" y="0" width="123" height="21" patternUnits="userSpaceOnUse"><image id="SvgjsImage1253" xlink:href="http://cdn.processon.com/627a4b06e0b34d07586d14f2?e=1652185366&amp;token=trhI0BY8QfVrIGn9nENop6JAc6l5nZuxhjQ62UfM:7Y0bSAeYcKlQM1IAil90kNLvB1Q=" width="305" height="127" preserveAspectRatio="none" crossOrigin="anonymous" x="0" y="-106"></image></pattern><marker id="SvgjsMarker1256" markerWidth="12" markerHeight="8" refX="9" refY="4" viewBox="0 0 12 8" orient="auto" markerUnits="userSpaceOnUse" stroke-dasharray="0,0"><path id="SvgjsPath1257" d="M0,0 L12,4 L0,8 L0,0" fill="#323232" stroke="#323232" stroke-width="1"></path></marker></defs><g id="SvgjsG1134" transform="translate(26,150.01215277777774)"><path id="SvgjsPath1135" d="M 0 4Q 0 0 4 0L 601 0Q 605 0 605 4L 605 196.5Q 605 200.5 601 200.5L 4 200.5Q 0 200.5 0 196.5Z" stroke-dasharray="3,4" stroke="rgba(50,50,50,1)" stroke-width="1" fill-opacity="1" fill="#ffffff"></path><g id="SvgjsG1136"><text id="SvgjsText1137" font-family="微软雅黑" text-anchor="middle" font-size="13px" width="595px" fill="#323232" font-weight="700" align="middle" lineHeight="125%" anchor="middle" family="微软雅黑" size="13px" weight="700" font-style="" opacity="1" y="4.696428571428571" transform="rotate(0)"><tspan id="SvgjsTspan1138" dy="16" x="302.5"><tspan id="SvgjsTspan1139" style="text-decoration:;">模型层</tspan></tspan></text></g></g><g id="SvgjsG1140" transform="translate(27,346.51909722222223)"><path id="SvgjsPath1141" d="M 0 4Q 0 0 4 0L 599 0Q 603 0 603 4L 603 196Q 603 200 599 200L 4 200Q 0 200 0 196Z" stroke-dasharray="3,4" stroke="rgba(50,50,50,1)" stroke-width="1" fill-opacity="1" fill="#ffffff"></path><g id="SvgjsG1142"><text id="SvgjsText1143" font-family="微软雅黑" text-anchor="middle" font-size="13px" width="593px" fill="#323232" font-weight="700" align="middle" lineHeight="125%" anchor="middle" family="微软雅黑" size="13px" weight="700" font-style="" opacity="1" y="4.660714285714285" transform="rotate(0)"><tspan id="SvgjsTspan1144" dy="16" x="301.5"><tspan id="SvgjsTspan1145" style="text-decoration:;">组合层</tspan></tspan></text></g></g><g id="SvgjsG1146" transform="translate(25,25.012152777777743)"><path id="SvgjsPath1147" d="M 0 4Q 0 0 4 0L 603 0Q 607 0 607 4L 607 121Q 607 125 603 125L 4 125Q 0 125 0 121Z" stroke-dasharray="3,4" stroke="rgba(50,50,50,1)" stroke-width="1" fill-opacity="1" fill="#ffffff"></path><g id="SvgjsG1148"><text id="SvgjsText1149" font-family="微软雅黑" text-anchor="middle" font-size="13px" width="597px" fill="#323232" font-weight="700" align="middle" lineHeight="125%" anchor="middle" family="微软雅黑" size="13px" weight="700" font-style="" opacity="1" y="-0.6964285714285712" transform="rotate(0)"><tspan id="SvgjsTspan1150" dy="16" x="303.5"><tspan id="SvgjsTspan1151" style="text-decoration:;">输入层</tspan></tspan></text></g></g><g id="SvgjsG1152" transform="translate(26,546.5190972222222)"><path id="SvgjsPath1153" d="M 0 4Q 0 0 4 0L 601 0Q 605 0 605 4L 605 98Q 605 102 601 102L 4 102Q 0 102 0 98Z" stroke-dasharray="3,4" stroke="rgba(50,50,50,1)" stroke-width="1" fill-opacity="1" fill="#ffffff"></path><g id="SvgjsG1154"><text id="SvgjsText1155" font-family="微软雅黑" text-anchor="middle" font-size="13px" width="595px" fill="#323232" font-weight="700" align="middle" lineHeight="125%" anchor="middle" family="微软雅黑" size="13px" weight="700" font-style="" opacity="1" y="-2.3392857142857144" transform="rotate(0)"><tspan id="SvgjsTspan1156" dy="16" x="302.5"><tspan id="SvgjsTspan1157" style="text-decoration:;">输出层</tspan></tspan></text></g></g><g id="SvgjsG1158" transform="translate(147.5,203.01215277777777)"><path id="SvgjsPath1159" d="M 0 4Q 0 0 4 0L 96 0Q 100 0 100 4L 100 40Q 100 44 96 44L 4 44Q 0 44 0 40Z" stroke="rgba(50,50,50,1)" stroke-width="1" fill-opacity="1" fill="#f5f5f5"></path><g id="SvgjsG1160"><text id="SvgjsText1161" font-family="微软雅黑" text-anchor="middle" font-size="13px" width="80px" fill="#323232" font-weight="400" align="middle" lineHeight="125%" anchor="middle" family="微软雅黑" size="13px" weight="400" font-style="" opacity="1" y="11.375" transform="rotate(0)"><tspan id="SvgjsTspan1162" dy="16" x="50"><tspan id="SvgjsTspan1163" style="text-decoration:;">LSTM模型</tspan></tspan></text></g></g><g id="SvgjsG1164" transform="translate(411.75,189.16840277777774)"><path id="SvgjsPath1165" d="M 0 4Q 0 0 4 0L 96 0Q 100 0 100 4L 100 46Q 100 50 96 50L 4 50Q 0 50 0 46Z" stroke="rgba(50,50,50,1)" stroke-width="1" fill-opacity="1" fill="#f5f5f5"></path><g id="SvgjsG1166"><text id="SvgjsText1167" font-family="微软雅黑" text-anchor="middle" font-size="13px" width="80px" fill="#323232" font-weight="400" align="middle" lineHeight="125%" anchor="middle" family="微软雅黑" size="13px" weight="400" font-style="" opacity="1" y="14.375" transform="rotate(0)"><tspan id="SvgjsTspan1168" dy="16" x="50"><tspan id="SvgjsTspan1169" style="text-decoration:;">SARIMA模型</tspan></tspan></text></g></g><g id="SvgjsG1170" transform="translate(121,274.01215277777777)"><path id="SvgjsPath1171" d="M 0 4Q 0 0 4 0L 149 0Q 153 0 153 4L 153 54Q 153 58 149 58L 4 58Q 0 58 0 54Z" stroke="rgba(50,50,50,1)" stroke-width="1" fill-opacity="1" fill="#f5f5f5"></path><g id="SvgjsG1172"><rect id="SvgjsRect1173" width="133" height="21" transform="translate(10,18.5)" fill="url(#SvgjsPattern1174)"></rect></g></g><g id="SvgjsG1176" transform="translate(78,379.51909722222223)"><path id="SvgjsPath1177" d="M 0 4Q 0 0 4 0L 235 0Q 239 0 239 4L 239 61.25Q 239 65.25 235 65.25L 4 65.25Q 0 65.25 0 61.25Z" stroke="rgba(50,50,50,1)" stroke-width="1" fill-opacity="1" fill="#f5f5f5"></path><g id="SvgjsG1178"><rect id="SvgjsRect1179" width="219" height="22" transform="translate(10,21.625)" fill="url(#SvgjsPattern1180)"></rect></g></g><g id="SvgjsG1182" transform="translate(377.5,377.14409722222223)"><path id="SvgjsPath1183" d="M 0 4Q 0 0 4 0L 164.5 0Q 168.5 0 168.5 4L 168.5 66Q 168.5 70 164.5 70L 4 70Q 0 70 0 66Z" stroke="rgba(50,50,50,1)" stroke-width="1" fill-opacity="1" fill="#f5f5f5"></path><g id="SvgjsG1184"><rect id="SvgjsRect1185" width="149" height="21" transform="translate(10,24.5)" fill="url(#SvgjsPattern1186)"></rect></g></g><g id="SvgjsG1188" transform="translate(186.75,469.33159722222223)"><path id="SvgjsPath1189" d="M 0 4Q 0 0 4 0L 321 0Q 325 0 325 4L 325 51Q 325 55 321 55L 4 55Q 0 55 0 51Z" stroke="rgba(50,50,50,1)" stroke-width="1" fill-opacity="1" fill="#f5f5f5"></path><g id="SvgjsG1190"><rect id="SvgjsRect1191" width="305" height="21" transform="translate(10,17)" fill="url(#SvgjsPattern1192)"></rect></g></g><g id="SvgjsG1194" transform="translate(273.375,577.1197916666667)"><path id="SvgjsPath1195" d="M 0 4Q 0 0 4 0L 147.75 0Q 151.75 0 151.75 4L 151.75 50.625Q 151.75 54.625 147.75 54.625L 4 54.625Q 0 54.625 0 50.625Z" stroke="rgba(50,50,50,1)" stroke-width="1" fill-opacity="1" fill="#f5f5f5"></path><g id="SvgjsG1196"><rect id="SvgjsRect1197" width="132" height="21" transform="translate(10,16.8125)" fill="url(#SvgjsPattern1198)"></rect></g></g><g id="SvgjsG1200"><path id="SvgjsPath1201" d="M197.5 100.01215277777774L197.5 151.51215277777777L197.5 151.51215277777777L197.5 201.21215277777776" stroke="#323232" stroke-width="1" fill="none" marker-end="url(#SvgjsMarker1202)"></path></g><g id="SvgjsG1204"><path id="SvgjsPath1205" d="M461.75 100.01215277777774L461.75 144.59027777777774L461.75 144.59027777777774L461.75 187.36840277777773" stroke="#323232" stroke-width="1" fill="none" marker-end="url(#SvgjsMarker1206)"></path></g><g id="SvgjsG1208"><path id="SvgjsPath1209" d="M461.75 100.01215277777774L461.75 126.51215277777777L221.5 126.51215277777777L221.5 201.21215277777776" stroke="#323232" stroke-width="1" fill="none" marker-end="url(#SvgjsMarker1210)"></path></g><g id="SvgjsG1212"><path id="SvgjsPath1213" d="M197.5 247.51215277777777L197.5 260.51215277777777L197.5 260.51215277777777L197.5 272.21215277777776" stroke="#323232" stroke-width="1" fill="none" marker-end="url(#SvgjsMarker1214)"></path></g><g id="SvgjsG1216"><path id="SvgjsPath1217" d="M461.75 239.66840277777777L461.75 258.74652777777777L461.75 258.74652777777777L461.75 278.32465277777777" stroke="#323232" stroke-width="1" fill="none" marker-end="url(#SvgjsMarker1218)"></path></g><g id="SvgjsG1220"><path id="SvgjsPath1221" d="M197.5 332.51215277777777L197.5 355.765625L197.5 355.765625L197.5 377.7190972222222" stroke="#323232" stroke-width="1" fill="none" marker-end="url(#SvgjsMarker1222)"></path></g><g id="SvgjsG1224"><path id="SvgjsPath1225" d="M317.5 412.14409722222223L349.25 412.14409722222223L349.25 467.5315972222222" stroke="#323232" stroke-width="1" fill="none" marker-end="url(#SvgjsMarker1226)"></path></g><g id="SvgjsG1228"><path id="SvgjsPath1229" d="M377 412.14409722222223L349.25 412.14409722222223L349.25 467.5315972222222" stroke="#323232" stroke-width="1" fill="none" marker-end="url(#SvgjsMarker1230)"></path></g><g id="SvgjsG1232"><path id="SvgjsPath1233" d="M349.25 524.8315972222222L349.25 550.7256944444443L349.25 550.7256944444443L349.25 575.3197916666668" stroke="#323232" stroke-width="1" fill="none" marker-end="url(#SvgjsMarker1234)"></path></g><g id="SvgjsG1236" transform="translate(132.5,61.505208333333314)"><path id="SvgjsPath1237" d="M 0 0L 130 0L 130 42L 0 42Z" stroke="rgba(50,50,50,1)" stroke-width="1" fill-opacity="1" fill="#f5f5f5"></path><g id="SvgjsG1238"><text id="SvgjsText1239" font-family="微软雅黑" text-anchor="middle" font-size="13px" width="110px" fill="#323232" font-weight="400" align="middle" lineHeight="125%" anchor="middle" family="微软雅黑" size="13px" weight="400" font-style="" opacity="1" y="10.375" transform="rotate(0)"><tspan id="SvgjsTspan1240" dy="16" x="65"><tspan id="SvgjsTspan1241" style="text-decoration:;">关键影响因素数据</tspan></tspan></text></g></g><g id="SvgjsG1242" transform="translate(410.75,60.25173611111106)"><path id="SvgjsPath1243" d="M 0 0L 102 0L 102 44.506944444444485L 0 44.506944444444485Z" stroke="rgba(50,50,50,1)" stroke-width="1" fill-opacity="1" fill="#f5f5f5"></path><g id="SvgjsG1244"><text id="SvgjsText1245" font-family="微软雅黑" text-anchor="middle" font-size="13px" width="82px" fill="#323232" font-weight="400" align="middle" lineHeight="125%" anchor="middle" family="微软雅黑" size="13px" weight="400" font-style="" opacity="1" y="11.628472222222243" transform="rotate(0)"><tspan id="SvgjsTspan1246" dy="16" x="51"><tspan id="SvgjsTspan1247" style="text-decoration:;">历史数据</tspan></tspan></text></g></g><g id="SvgjsG1248" transform="translate(390.5,278.32465277777777)"><path id="SvgjsPath1249" d="M 0 0L 142.5 0L 142.5 55.90277777777777L 0 55.90277777777777Z" stroke="rgba(50,50,50,1)" stroke-width="1" fill-opacity="1" fill="#f5f5f5"></path><g id="SvgjsG1250"><rect id="SvgjsRect1251" width="123" height="21" transform="translate(10,17.451388888888886)" fill="url(#SvgjsPattern1252)"></rect></g></g><g id="SvgjsG1254"><path id="SvgjsPath1255" d="M461.75 334.72743055555554L461.75 355.68576388888886L461.75 355.68576388888886L461.75 375.3440972222222" stroke="#323232" stroke-width="1" fill="none" marker-end="url(#SvgjsMarker1256)"></path></g></svg>